<svg width="39" height="28" viewBox="0 0 39 28" fill="none" xmlns="http://www.w3.org/2000/svg">
<path d="M34.4292 6.97807C34.4544 7.28505 34.4544 7.59028 34.4544 7.8955C34.4544 17.2364 26.6173 28 12.2948 28C7.8822 28 3.78288 26.8405 0.333252 24.8267C0.959753 24.8916 1.56305 24.9144 2.21469 24.9144C5.85574 24.9144 9.20675 23.7988 11.8848 21.8955C8.46036 21.8306 5.59083 19.7958 4.60081 16.9961C5.08228 17.061 5.5657 17.1049 6.07231 17.1049C6.77036 17.1049 7.47227 17.0172 8.12391 16.8646C4.55247 16.2085 1.87823 13.365 1.87823 9.93033V9.84263C2.9166 10.3671 4.12126 10.6951 5.39747 10.739C3.29946 9.4725 1.92464 7.3061 1.92464 4.85553C1.92464 3.54342 2.30944 2.34006 2.98428 1.29107C6.8187 5.57649 12.5829 8.3779 19.0451 8.68488C18.9253 8.15863 18.8518 7.61308 18.8518 7.06578C18.8518 3.17153 22.3246 0 26.6405 0C28.8835 0 30.9081 0.852524 32.3312 2.2313C34.0908 1.92432 35.777 1.33317 37.2736 0.524495C36.6955 2.16464 35.4637 3.54342 33.8491 4.41874C35.4173 4.26438 36.9372 3.87144 38.3333 3.32414C37.2736 4.72397 35.9491 5.97118 34.4292 6.97807Z" fill="#00ACEE"/>
</svg>
